# Object Export From Tinkercad Server 2015

mtllib obj.mtl

o obj_0
v 30 		-50 		10
v 30 		-50 		0
v 30 		-30 		10
v 30 		-30 		0
v 10 		-30 		10
v 10 		-30 		0
v 10 		-50 		10
v 10 		-50 		0
# 8 vertices

g group_0_15277357

usemtl color_15277357
s 0

f 1 	2 	3
f 2 	4 	3
f 5 	6 	7
f 6 	8 	7
f 5 	7 	3
f 7 	1 	3
f 8 	6 	2
f 6 	4 	2
f 7 	8 	1
f 8 	2 	1
f 3 	4 	5
f 4 	6 	5
# 12 faces

 #end of obj_0

o obj_1
v 30 		-50 		20
v 30 		-50 		10
v 30 		-30 		20
v 30 		-30 		10
v 10 		-30 		20
v 10 		-30 		10
v 10 		-50 		20
v 10 		-50 		10
# 8 vertices

g group_1_15277357

usemtl color_15277357
s 0

f 9 	10 	11
f 10 	12 	11
f 13 	14 	15
f 14 	16 	15
f 13 	15 	11
f 15 	9 	11
f 16 	14 	10
f 14 	12 	10
f 15 	16 	9
f 16 	10 	9
f 11 	12 	13
f 12 	14 	13
# 12 faces

 #end of obj_1

