# Object Export From Tinkercad Server 2015

mtllib obj.mtl

o obj_0
v -5.8551 		14.6377 		9
v -5.8551 		20 		8.3297
v -8 		14.6377 		8.3297
v -5.8551 		-14.6377 		9
v -8 		-14.6377 		8.3297
v -5.8551 		-20 		8.3297
v 5.8551 		-14.6377 		9
v 5.8551 		-20 		8.3297
v 8 		-14.6377 		8.3297
v 5.8551 		14.6377 		9
v 8 		14.6377 		8.3297
v 5.8551 		20 		8.3297
v -8 		14.6377 		4.6703
v -5.8551 		20 		4.6703
v -8 		-14.6377 		4.6703
v -5.8551 		-20 		4.6703
v 5.8551 		-20 		4.6703
v 8 		-14.6377 		4.6703
v 8 		14.6377 		4.6703
v 5.8551 		20 		4.6703
v -5.8551 		14.6377 		4
v -5.8551 		-14.6377 		4
v 5.8551 		-14.6377 		4
v 5.8551 		14.6377 		4
# 24 vertices

g group_0_15277357

usemtl color_15277357
s 0c:\Users\Hp\Downloads\jeep.bbmodel

f 1 	2 	3
f 4 	1 	5
f 1 	3 	5
f 4 	5 	6
f 7 	4 	8
f 4 	6 	8
f 7 	8 	9
f 10 	7 	11
f 7 	9 	11
f 10 	11 	12
f 1 	10 	2
f 10 	12 	2
f 3 	2 	13
f 2 	14 	13
f 5 	3 	15
f 3 	13 	15
f 6 	5 	16
f 5 	15 	16
f 8 	6 	17
f 6 	16 	17
f 9 	8 	18
f 8 	17 	18
f 11 	9 	19
f 9 	18 	19
f 12 	11 	20
f 11 	19 	20
f 2 	12 	14
f 12 	20 	14
f 13 	14 	21
f 15 	13 	22
f 13 	21 	22
f 16 	15 	22
f 17 	16 	23
f 16 	22 	23
f 18 	17 	23
f 19 	18 	24
f 18 	23 	24
f 20 	19 	24
f 14 	20 	21
f 20 	24 	21
f 1 	4 	10
f 4 	7 	10
f 21 	24 	22
f 22 	24 	23
# 44 faces

 #end of obj_0

o obj_1
v -1 		7.727 		12
v -1 		20 		12
v -1 		20 		10
v -1 		7.727 		10
v 1 		7.727 		10
v 1 		20 		10
v 1 		20 		12
v -2.071 		7.727 		9
v -2.071 		7.727 		13
v 1 		7.727 		12
v 2.071 		-7.727 		13
v 5.657 		-5.657 		13
v 7.727 		-2.071 		13
v 7.727 		2.071 		13
v 5.657 		5.657 		13
v 2.071 		7.727 		13
v 5.657 		5.657 		9
v 2.071 		7.727 		9
v -5.657 		5.657 		13
v 5.657 		-5.657 		9
v 7.727 		-2.071 		9
v -7.727 		2.071 		13
v -7.727 		-2.071 		13
v 7.727 		2.071 		9
v -5.657 		-5.657 		13
v -2.071 		-7.727 		13
v -2.071 		-7.727 		9
v -7.727 		-2.071 		9
v -5.657 		-5.657 		9
v -7.727 		2.071 		9
v -5.657 		5.657 		9
v 2.071 		-7.727 		9
# 32 vertices

g group_1_16089887

usemtl color_16089887
s 0

f 25 	26 	27
f 25 	27 	28
f 30 	27 	26
f 30 	26 	31
f 29 	30 	31
f 29 	31 	34
f 44 	45 	37
f 44 	37 	36
f 32 	33 	25
f 32 	25 	28
f 45 	48 	38
f 45 	38 	37
f 28 	27 	30
f 28 	30 	29
f 48 	41 	39
f 48 	39 	38
f 41 	42 	40
f 41 	40 	39
f 35 	36 	37
f 35 	37 	38
f 35 	38 	39
f 35 	39 	40
f 35 	40 	33
f 35 	33 	43
f 35 	43 	46
f 35 	46 	47
f 49 	50 	47
f 35 	47 	50
f 34 	25 	33
f 34 	33 	40
f 40 	42 	29
f 40 	29 	34
f 51 	50 	49
f 51 	49 	53
f 52 	47 	46
f 52 	46 	54
f 43 	55 	54
f 43 	54 	46
f 34 	31 	26
f 34 	26 	25
f 53 	49 	47
f 53 	47 	52
f 42 	32 	28
f 42 	28 	29
f 33 	32 	55
f 33 	55 	43
f 56 	35 	50
f 56 	50 	51
f 44 	36 	35
f 44 	35 	56
f 42 	41 	48
f 42 	48 	45
f 42 	45 	44
f 42 	44 	56
f 42 	56 	51
f 42 	51 	53
f 42 	53 	52
f 42 	52 	54
f 55 	32 	54
f 32 	42 	54
# 60 faces

 #end of obj_1

o obj_2
v 10 		-10.0507 		1.8841
v 9.058 		-19 		1.8841
v 9.058 		-10.0507 		0
v 10 		10.0507 		1.8841
v 9.058 		10.0507 		0
v 9.058 		19 		1.8841
v 10 		10.0507 		6.1159
v 9.058 		19 		6.1159
v 9.058 		10.0507 		8
v 10 		-10.0507 		6.1159
v 9.058 		-10.0507 		8
v 9.058 		-19 		6.1159
v 6.942 		-10.0507 		0
v 6.942 		-19 		1.8841
v 6.942 		10.0507 		0
v 6.942 		19 		1.8841
v 6.942 		19 		6.1159
v 6.942 		10.0507 		8
v 6.942 		-10.0507 		8
v 6.942 		-19 		6.1159
v 6 		-10.0507 		1.8841
v 6 		10.0507 		1.8841
v 6 		10.0507 		6.1159
v 6 		-10.0507 		6.1159
# 24 vertices

g group_2_15277357

usemtl color_15277357
s 0

f 57 	58 	59
f 60 	57 	61
f 57 	59 	61
f 60 	61 	62
f 63 	60 	64
f 60 	62 	64
f 63 	64 	65
f 66 	63 	67
f 63 	65 	67
f 66 	67 	68
f 57 	66 	58
f 66 	68 	58
f 59 	58 	69
f 58 	70 	69
f 61 	59 	71
f 59 	69 	71
f 62 	61 	72
f 61 	71 	72
f 64 	62 	73
f 62 	72 	73
f 65 	64 	74
f 64 	73 	74
f 67 	65 	75
f 65 	74 	75
f 68 	67 	76
f 67 	75 	76
f 58 	68 	70
f 68 	76 	70
f 69 	70 	77
f 71 	69 	78
f 69 	77 	78
f 72 	71 	78
f 73 	72 	79
f 72 	78 	79
f 74 	73 	79
f 75 	74 	80
f 74 	79 	80
f 76 	75 	80
f 70 	76 	77
f 76 	80 	77
f 57 	60 	66
f 60 	63 	66
f 77 	80 	78
f 78 	80 	79
# 44 faces

 #end of obj_2

o obj_3
v -6 		-10.0507 		1.8841
v -6.942 		-19 		1.8841
v -6.942 		-10.0507 		0
v -6 		10.0507 		1.8841
v -6.942 		10.0507 		0
v -6.942 		19 		1.8841
v -6 		10.0507 		6.1159
v -6.942 		19 		6.1159
v -6.942 		10.0507 		8
v -6 		-10.0507 		6.1159
v -6.942 		-10.0507 		8
v -6.942 		-19 		6.1159
v -9.058 		-10.0507 		0
v -9.058 		-19 		1.8841
v -9.058 		10.0507 		0
v -9.058 		19 		1.8841
v -9.058 		19 		6.1159
v -9.058 		10.0507 		8
v -9.058 		-10.0507 		8
v -9.058 		-19 		6.1159
v -10 		-10.0507 		1.8841
v -10 		10.0507 		1.8841
v -10 		10.0507 		6.1159
v -10 		-10.0507 		6.1159
# 24 vertices

g group_3_15277357

usemtl color_15277357
s 0

f 81 	82 	83
f 84 	81 	85
f 81 	83 	85
f 84 	85 	86
f 87 	84 	88
f 84 	86 	88
f 87 	88 	89
f 90 	87 	91
f 87 	89 	91
f 90 	91 	92
f 81 	90 	82
f 90 	92 	82
f 83 	82 	93
f 82 	94 	93
f 85 	83 	95
f 83 	93 	95
f 86 	85 	96
f 85 	95 	96
f 88 	86 	97
f 86 	96 	97
f 89 	88 	98
f 88 	97 	98
f 91 	89 	99
f 89 	98 	99
f 92 	91 	100
f 91 	99 	100
f 82 	92 	94
f 92 	100 	94
f 93 	94 	101
f 95 	93 	102
f 93 	101 	102
f 96 	95 	102
f 97 	96 	103
f 96 	102 	103
f 98 	97 	103
f 99 	98 	104
f 98 	103 	104
f 100 	99 	104
f 94 	100 	101
f 100 	104 	101
f 81 	84 	90
f 84 	87 	90
f 101 	104 	102
f 102 	104 	103
# 44 faces

 #end of obj_3

o obj_4
v 0.05 		-0.05 		51.4868
v 0.05 		-0.05 		13
v 0.05 		0.05 		51.4868
v 0.05 		0.05 		13
v -0.05 		0.05 		51.4868
v -0.05 		0.05 		13
v -0.05 		-0.05 		51.4868
v -0.05 		-0.05 		13
# 8 vertices

g group_4_16768282

usemtl color_16768282
s 0

f 105 	106 	107
f 106 	108 	107
f 109 	110 	111
f 110 	112 	111
f 109 	111 	107
f 111 	105 	107
f 112 	110 	106
f 110 	108 	106
f 111 	112 	105
f 112 	106 	105
f 107 	108 	109
f 108 	110 	109
# 12 faces

 #end of obj_4

